<?xml version="1.0" encoding="iso-8859-1"?>
<!-- Uploaded to: SVG Repo, www.svgrepo.com, Generator: SVG Repo Mixer Tools -->
<!DOCTYPE svg PUBLIC "-//W3C//DTD SVG 1.1//EN" "http://www.w3.org/Graphics/SVG/1.1/DTD/svg11.dtd">
<svg fill="#BC4096" version="1.1" id="Capa_1" xmlns="http://www.w3.org/2000/svg" xmlns:xlink="http://www.w3.org/1999/xlink" 
	 width="800px" height="800px" viewBox="0 0 244.247 244.247"
	 xml:space="preserve">
<g>
	<g>
		<path d="M0,25.832c0,3.405,2.754,6.167,6.165,6.167h26.972c1.82,0,5.02,1.284,6.334,2.552l15.892,15.267h-17.89
			c-10.207,0-12.411,5.626-4.923,12.563l77.738,71.953c1.841,1.706,3.946,2.955,6.167,3.783v82.247l-36.061,15.671
			c-3.121,1.356-2.892,2.453,0.518,2.453h85.528c3.407,0,3.61-1.062,0.467-2.372l-38.125-15.868v-81.928
			c2.879-0.925,5.602-2.483,7.825-4.814l66.948-70.302c7.043-7.394,4.479-13.391-5.729-13.391H73.146L48.01,25.659
			c-3.611-3.474-9.869-5.995-14.879-5.995H6.159C2.754,19.669,0,22.424,0,25.832z"/>
		<path d="M244.148,60.529c0.844-13.764-3.727-27.027-12.867-37.356c-9.141-10.321-21.759-16.478-35.516-17.316
			c-24.171-1.475-45.904,13.771-52.684,37.102l11.831,3.443c5.154-17.758,21.577-29.348,40.106-28.241
			c10.471,0.64,20.073,5.319,27.02,13.183c6.957,7.855,10.445,17.958,9.806,28.432c-0.64,10.479-5.316,20.076-13.183,27.035
			c-7.865,6.952-17.94,10.42-28.437,9.79c-3.966-0.244-7.825-1.071-11.491-2.455l-4.356,11.535
			c4.818,1.821,9.901,2.907,15.102,3.225c1.066,0.066,2.138,0.096,3.209,0.096c12.604,0,24.618-4.544,34.135-12.961
			C237.161,86.907,243.312,74.293,244.148,60.529z"/>
	</g>
</g>
</svg>