<svg width="120" height="102" viewBox="0 0 90 72" fill="white" xmlns="http://www.w3.org/2000/svg">
<g clip-path="url(#clip0_1865_1067)">
<path d="M73.904 49.1799L66.01 41.2859L71.868 38.4419C72.269 38.2499 72.51 37.8329 72.483 37.3879C72.461 36.9429 72.165 36.5589 71.747 36.4159L62.189 33.1279V13.9019H64.566C65.175 13.9019 65.664 13.4129 65.664 12.8039C65.664 12.1999 65.175 11.7059 64.566 11.7059H62.189V1.31895C62.189 0.709948 61.695 0.220947 61.091 0.220947H15.134C14.525 0.220947 14.036 0.709948 14.036 1.31895V11.7059H11.494C10.89 11.7059 10.396 12.1999 10.396 12.8039C10.396 13.4129 10.89 13.9019 11.494 13.9019H14.036V39.7919C14.036 40.3959 14.525 40.8899 15.134 40.8899H52.153L56.023 52.1389C56.171 52.5559 56.556 52.8469 56.995 52.8749C57.44 52.9079 57.857 52.6609 58.049 52.2599L60.898 46.4019L68.787 54.2969C68.996 54.4999 69.276 54.6149 69.567 54.6149C69.622 54.6149 69.682 54.6099 69.737 54.5989C69.77 54.5929 69.803 54.588 69.836 54.577C69.874 54.571 69.913 54.5609 69.951 54.5439C69.962 54.5439 69.973 54.5389 69.984 54.5329C70.116 54.4779 70.237 54.3959 70.341 54.2969L73.904 50.7339C74.107 50.5309 74.228 50.2509 74.228 49.9599C74.227 49.6689 74.107 49.3889 73.904 49.1799ZM16.232 2.41695H59.992V24.7169L48.699 13.4299C48.287 13.0179 47.557 13.0179 47.145 13.4299L31.867 28.7029L26.756 23.5969C26.344 23.1849 25.614 23.1849 25.202 23.5969L16.231 32.5619L16.232 2.41695ZM16.232 38.6939V35.6699L25.982 25.9249L31.093 31.0359C31.505 31.4479 32.229 31.4479 32.641 31.0359L47.92 15.7579L59.992 27.8249V32.3709L49.995 28.9289C49.567 28.7809 49.111 28.9179 48.831 29.2359C48.826 29.2359 48.826 29.2359 48.82 29.2409C48.518 29.5259 48.397 29.9709 48.54 30.3879L51.395 38.6939H16.232ZM69.567 51.9639L61.36 43.7569C61.107 43.5039 60.751 43.3949 60.399 43.4499C60.048 43.5099 59.751 43.7349 59.592 44.0539L57.237 48.9129L53.987 39.4699C53.976 39.4319 53.965 39.3989 53.949 39.3659L51.319 31.7129L68.519 37.6309L63.666 39.9859C63.342 40.1399 63.117 40.4419 63.062 40.7929C63.002 41.1439 63.117 41.5009 63.364 41.7539L71.577 49.9609L69.567 51.9639Z" fill="gray"/>
<path d="M70.341 54.2969C70.237 54.4009 70.116 54.4839 69.984 54.5329C70.116 54.4779 70.236 54.3959 70.341 54.2969Z" fill="gray"/>
<path d="M78.595 13.904H71.582C70.976 13.904 70.484 13.412 70.484 12.806C70.484 12.2 70.976 11.708 71.582 11.708H78.595C79.201 11.708 79.693 12.2 79.693 12.806C79.693 13.412 79.201 13.904 78.595 13.904Z" fill="gray"/>
<path d="M88.902 17.198C88.296 17.198 87.804 16.706 87.804 16.1V13.904H85.608C85.002 13.904 84.51 13.412 84.51 12.806C84.51 12.2 85.002 11.708 85.608 11.708H88.902C89.508 11.708 90 12.2 90 12.806V16.1C90 16.707 89.508 17.198 88.902 17.198Z" fill="gray"/>
<path d="M88.902 61.1581C88.296 61.1581 87.804 60.6661 87.804 60.0601V52.7341C87.804 52.1281 88.296 51.6361 88.902 51.6361C89.508 51.6361 90 52.1271 90 52.7341V60.0601C90 60.6671 89.508 61.1581 88.902 61.1581ZM88.902 46.5051C88.296 46.5051 87.804 46.0131 87.804 45.4071V38.0801C87.804 37.4741 88.296 36.9821 88.902 36.9821C89.508 36.9821 90 37.4741 90 38.0801V45.4071C90 46.0131 89.508 46.5051 88.902 46.5051ZM88.902 31.8521C88.296 31.8521 87.804 31.3601 87.804 30.7541V23.4271C87.804 22.8211 88.296 22.3291 88.902 22.3291C89.508 22.3291 90 22.8211 90 23.4271V30.7541C90 31.3601 89.508 31.8521 88.902 31.8521Z" fill="gray"/>
<path d="M88.902 71.7791H85.608C85.002 71.7791 84.51 71.2871 84.51 70.6811C84.51 70.0751 85.002 69.5831 85.608 69.5831H87.804V67.3871C87.804 66.7811 88.296 66.2891 88.902 66.2891C89.508 66.2891 90 66.7811 90 67.3871V70.6811C90 71.2871 89.508 71.7791 88.902 71.7791Z" fill="gray"/>
<path d="M79.361 71.779H73.114C72.508 71.779 72.016 71.287 72.016 70.681C72.016 70.075 72.508 69.583 73.114 69.583H79.361C79.967 69.583 80.459 70.075 80.459 70.681C80.459 71.287 79.967 71.779 79.361 71.779ZM66.866 71.779H60.619C60.013 71.779 59.521 71.287 59.521 70.681C59.521 70.075 60.013 69.583 60.619 69.583H66.866C67.472 69.583 67.964 70.075 67.964 70.681C67.964 71.287 67.472 71.779 66.866 71.779ZM54.371 71.779H48.124C47.518 71.779 47.026 71.287 47.026 70.681C47.026 70.075 47.518 69.583 48.124 69.583H54.371C54.977 69.583 55.469 70.075 55.469 70.681C55.469 71.287 54.977 71.779 54.371 71.779ZM41.876 71.779H35.629C35.023 71.779 34.531 71.287 34.531 70.681C34.531 70.075 35.023 69.583 35.629 69.583H41.876C42.482 69.583 42.974 70.075 42.974 70.681C42.974 71.287 42.483 71.779 41.876 71.779ZM29.382 71.779H23.135C22.529 71.779 22.037 71.287 22.037 70.681C22.037 70.075 22.529 69.583 23.135 69.583H29.382C29.988 69.583 30.48 70.075 30.48 70.681C30.48 71.287 29.988 71.779 29.382 71.779ZM16.887 71.779H10.64C10.034 71.779 9.54199 71.287 9.54199 70.681C9.54199 70.075 10.034 69.583 10.64 69.583H16.887C17.493 69.583 17.985 70.075 17.985 70.681C17.985 71.287 17.493 71.779 16.887 71.779Z" fill="gray"/>
<path d="M4.392 71.7791H1.098C0.492 71.7791 0 71.2871 0 70.6811V67.3871C0 66.7811 0.492 66.2891 1.098 66.2891C1.704 66.2891 2.196 66.7811 2.196 67.3871V69.5831H4.392C4.998 69.5831 5.49 70.0751 5.49 70.6811C5.49 71.2871 4.998 71.7791 4.392 71.7791Z" fill="gray"/>
<path d="M1.098 61.1581C0.492 61.1581 0 60.6671 0 60.0601V52.7331C0 52.1271 0.492 51.6351 1.098 51.6351C1.704 51.6351 2.196 52.1271 2.196 52.7331V60.0601C2.196 60.6671 1.704 61.1581 1.098 61.1581ZM1.098 46.5051C0.492 46.5051 0 46.0131 0 45.4071V38.0801C0 37.4741 0.492 36.9821 1.098 36.9821C1.704 36.9821 2.196 37.4741 2.196 38.0801V45.4071C2.196 46.0131 1.704 46.5051 1.098 46.5051ZM1.098 31.8511C0.492 31.8511 0 31.3601 0 30.7531V23.4271C0 22.8211 0.492 22.3291 1.098 22.3291C1.704 22.3291 2.196 22.8211 2.196 23.4271V30.7531C2.196 31.3601 1.704 31.8511 1.098 31.8511Z" fill="gray"/>
<path d="M1.098 17.198C0.492 17.198 0 16.707 0 16.1V12.806C0 12.2 0.492 11.708 1.098 11.708H4.392C4.998 11.708 5.49 12.2 5.49 12.806C5.49 13.412 4.998 13.904 4.392 13.904H2.196V16.1C2.196 16.707 1.704 17.198 1.098 17.198Z" fill="gray"/>
<path d="M28.603 18.895C25.604 18.895 23.165 16.455 23.165 13.457C23.165 10.458 25.605 8.01904 28.603 8.01904C31.601 8.01904 34.041 10.459 34.041 13.457C34.041 16.455 31.602 18.895 28.603 18.895ZM28.603 10.214C26.815 10.214 25.361 11.669 25.361 13.456C25.361 15.244 26.816 16.698 28.603 16.698C30.391 16.698 31.845 15.243 31.845 13.456C31.845 11.669 30.391 10.214 28.603 10.214Z" fill="gray"/>
</g>
<defs>
<clipPath id="clip0_1865_1067">
<rect width="90" height="72" fill="white"/>
</clipPath>
</defs>
</svg>
